<svg width="800" height="420" viewBox="0 0 800 420" fill="none" xmlns="http://www.w3.org/2000/svg">
  <rect width="800" height="420" rx="24" fill="#0B1220"/>
  <rect x="24" y="24" width="752" height="372" rx="18" fill="#111827" stroke="#334155"/>
  <circle cx="62" cy="62" r="8" fill="#F87171"/>
  <circle cx="90" cy="62" r="8" fill="#FBBF24"/>
  <circle cx="118" cy="62" r="8" fill="#34D399"/>
  <text x="150" y="68" fill="#94A3B8" font-family="SFMono-Regular, Menlo, Monaco, Consolas, monospace" font-size="20">mminihunter</text>
  <text x="48" y="126" fill="#E2E8F0" font-family="SFMono-Regular, Menlo, Monaco, Consolas, monospace" font-size="34">Mac Mini price tracker</text>
  <text x="48" y="164" fill="#94A3B8" font-family="SFMono-Regular, Menlo, Monaco, Consolas, monospace" font-size="22">Swiss stores • scraping • alerts • dashboard</text>
  <rect x="48" y="210" width="220" height="126" rx="12" fill="#0F172A" stroke="#1E293B"/>
  <polyline points="68,302 112,286 146,294 194,246 248,228" stroke="#34D399" stroke-width="6" fill="none" stroke-linecap="round" stroke-linejoin="round"/>
  <circle cx="68" cy="302" r="5" fill="#34D399"/>
  <circle cx="112" cy="286" r="5" fill="#34D399"/>
  <circle cx="146" cy="294" r="5" fill="#34D399"/>
  <circle cx="194" cy="246" r="5" fill="#34D399"/>
  <circle cx="248" cy="228" r="5" fill="#34D399"/>
  <rect x="300" y="210" width="196" height="126" rx="12" fill="#0F172A" stroke="#1E293B"/>
  <text x="324" y="248" fill="#94A3B8" font-family="SFMono-Regular, Menlo, Monaco, Consolas, monospace" font-size="18">latest drop</text>
  <text x="324" y="292" fill="#E2E8F0" font-family="SFMono-Regular, Menlo, Monaco, Consolas, monospace" font-size="36">CHF -189</text>
  <text x="324" y="320" fill="#34D399" font-family="SFMono-Regular, Menlo, Monaco, Consolas, monospace" font-size="18">Matrix alert sent</text>
  <rect x="528" y="210" width="224" height="126" rx="12" fill="#0F172A" stroke="#1E293B"/>
  <text x="552" y="248" fill="#94A3B8" font-family="SFMono-Regular, Menlo, Monaco, Consolas, monospace" font-size="18">stores</text>
  <text x="552" y="292" fill="#E2E8F0" font-family="SFMono-Regular, Menlo, Monaco, Consolas, monospace" font-size="36">Apple • Digitec</text>
  <text x="552" y="320" fill="#94A3B8" font-family="SFMono-Regular, Menlo, Monaco, Consolas, monospace" font-size="18">Brack • Fust • Ricardo</text>
</svg>
