<svg width="800" height="420" viewBox="0 0 800 420" fill="none" xmlns="http://www.w3.org/2000/svg">
  <rect width="800" height="420" rx="24" fill="#06131A"/>
  <rect x="24" y="24" width="752" height="372" rx="18" fill="#0B1F29" stroke="#164E63"/>
  <circle cx="62" cy="62" r="8" fill="#F87171"/>
  <circle cx="90" cy="62" r="8" fill="#FBBF24"/>
  <circle cx="118" cy="62" r="8" fill="#34D399"/>
  <text x="150" y="68" fill="#67E8F9" font-family="SFMono-Regular, Menlo, Monaco, Consolas, monospace" font-size="20">slbot</text>
  <text x="48" y="126" fill="#ECFEFF" font-family="SFMono-Regular, Menlo, Monaco, Consolas, monospace" font-size="34">RL bot for slither.io</text>
  <text x="48" y="164" fill="#A5F3FC" font-family="SFMono-Regular, Menlo, Monaco, Consolas, monospace" font-size="22">browser control • DQN • training dashboard</text>
  <rect x="48" y="208" width="330" height="130" rx="12" fill="#082F49" stroke="#0E7490"/>
  <text x="72" y="244" fill="#A5F3FC" font-family="SFMono-Regular, Menlo, Monaco, Consolas, monospace" font-size="18">observation</text>
  <text x="72" y="286" fill="#ECFEFF" font-family="SFMono-Regular, Menlo, Monaco, Consolas, monospace" font-size="30">128x128 matrix + 99 floats</text>
  <text x="72" y="316" fill="#67E8F9" font-family="SFMono-Regular, Menlo, Monaco, Consolas, monospace" font-size="18">state encoding for decision making</text>
  <rect x="414" y="208" width="338" height="130" rx="12" fill="#082F49" stroke="#0E7490"/>
  <polyline points="438,306 472,286 506,296 540,266 574,256 608,232 642,240 676,218 720,228" stroke="#22D3EE" stroke-width="6" fill="none" stroke-linecap="round" stroke-linejoin="round"/>
  <text x="438" y="244" fill="#A5F3FC" font-family="SFMono-Regular, Menlo, Monaco, Consolas, monospace" font-size="18">training trend</text>
  <text x="438" y="328" fill="#67E8F9" font-family="SFMono-Regular, Menlo, Monaco, Consolas, monospace" font-size="18">survive longer, die less stupidly</text>
</svg>
